<svg xmlns="http://www.w3.org/2000/svg" width="202" height="109.037" viewBox="0 0 202 109.037">
  <g id="グループ_18" data-name="グループ 18" transform="translate(-1055 -319.963)">
    <path id="パス_58" data-name="パス 58" d="M-3.85-2.94C-3.85-.56-1.75.63.35.63c2.17,0,4.34-1.19,4.2-3.64C4.34-8.19,4.2-16.73,4.2-25.13c0-6.86.07-13.65.21-18.41,0-1.4,0-1.4,6.93-1.4,1.68,0,3.71,0,6.09.14h.28c2.24,0,3.674-2.882,3.674-4.772,0-1.54-1.224-4.33-3.954-4.26-3.99.07-10.055,0-16,0H-6.564a4.429,4.429,0,0,0-4.288,4.26c0,1.89,1.628,4.772,4.288,4.772,4.13,0,2.784-.14,2.784,1.26.14,3.71.14,9.52.14,15.68,0,9.24-.07,19.39-.21,24.85Z" transform="translate(1070 417)" fill="#fff" stroke="#fff" stroke-width="1"/>
    <g id="パス_59" data-name="パス 59" transform="translate(1055 383)" fill="#fff">
      <path d="M 14.01140213012695 34.56562805175781 C 13.09481239318848 34.56562805175781 11.91994285583496 34.53918838500977 11.06208229064941 34.51987838745117 C 10.56844234466553 34.50876617431641 10.17853260040283 34.49999618530273 10.00000286102295 34.49999618530273 C 7.516022205352783 34.49999618530273 5.158972263336182 32.76914596557617 3.363052368164062 29.62629699707031 C 1.516792416572571 26.39532852172852 0.500002384185791 22.08878707885742 0.500002384185791 17.49999809265137 C 0.500002384185791 12.911208152771 1.516792416572571 8.604667663574219 3.363052368164062 5.373697757720947 C 5.158972263336182 2.230847835540771 7.516022205352783 0.4999977350234985 10.00000286102295 0.4999977350234985 C 12.48398208618164 0.4999977350234985 14.84103202819824 2.230847835540771 16.63695335388184 5.373697757720947 C 18.48321151733398 8.604667663574219 19.50000190734863 12.911208152771 19.50000190734863 17.49999809265137 C 19.50000190734863 17.89382743835449 19.50054168701172 18.28521728515625 19.50107192993164 18.67373847961426 C 19.50644302368164 22.56554794311523 19.51150321960449 26.24152755737305 18.95064163208008 29.07390785217285 C 18.3552417755127 32.08071136474609 17.18549537658691 33.81352615356445 15.27018165588379 34.52534484863281 C 15.21567058563232 34.53517150878906 14.9691743850708 34.56562805175781 14.01140213012695 34.56562805175781 Z" stroke="none"/>
      <path d="M 10.00000286102295 0.9999961853027344 C 7.703132629394531 0.9999961853027344 5.500262260437012 2.641376495361328 3.797172546386719 5.621767044067383 C 1.993392944335938 8.778398513793945 1.000001907348633 12.99682807922363 1.000001907348633 17.49999809265137 C 1.000001907348633 22.0031681060791 1.993392944335938 26.22159767150879 3.797172546386719 29.37822723388672 C 5.500262260437012 32.35861968994141 7.703132629394531 33.99999618530273 10.00000286102295 33.99999618530273 C 10.18416213989258 33.99999618530273 10.55713272094727 34.00838851928711 11.07333278656006 34.0200080871582 C 11.92882251739502 34.03925704956055 13.10044288635254 34.06562805175781 14.01140213012695 34.06562805175781 C 14.76898956298828 34.06562805175781 15.05175685882568 34.04687118530273 15.14774703979492 34.03706741333008 C 16.85384559631348 33.37874984741211 17.90741729736328 31.76821899414062 18.46017265319824 28.97677803039551 C 19.01143264770508 26.19283676147461 19.00640296936035 22.54084777832031 19.00107192993164 18.6744270324707 C 19.00054168701172 18.28567695617676 19.00000190734863 17.89405822753906 19.00000190734863 17.49999809265137 C 19.00000190734863 12.99682807922363 18.00661277770996 8.778398513793945 16.20283126831055 5.621767044067383 C 14.49974250793457 2.641376495361328 12.29687309265137 0.9999961853027344 10.00000286102295 0.9999961853027344 M 10.00000286102295 -3.814697265625e-06 C 15.52285194396973 -3.814697265625e-06 20.00000190734863 7.835018157958984 20.00000190734863 17.49999809265137 C 20.00000190734863 25.91812896728516 20.24652290344238 33.22604751586914 15.42822265625 34.99999618530273 C 15.30235290527344 35.04921340942383 14.73635292053223 35.06562423706055 14.01140213012695 35.06562423706055 C 12.56136608123779 35.06562423706055 10.47500991821289 34.99999618530273 10.00000286102295 34.99999618530273 C 4.477152824401855 34.99999618530273 1.9073486328125e-06 27.16497802734375 1.9073486328125e-06 17.49999809265137 C 1.9073486328125e-06 7.835018157958984 4.477152824401855 -3.814697265625e-06 10.00000286102295 -3.814697265625e-06 Z" stroke="none" fill="#fff"/>
    </g>
    <g id="長方形_71" data-name="長方形 71" transform="translate(1072 383)" fill="#fff" stroke="#fff" stroke-width="1">
      <rect width="33" height="35" rx="1" stroke="none"/>
      <rect x="0.5" y="0.5" width="32" height="34" rx="0.5" fill="none"/>
    </g>
    <g id="長方形_72" data-name="長方形 72" transform="translate(1103 387)" fill="#fff" stroke="#fff" stroke-width="1">
      <rect width="15" height="31" stroke="none"/>
      <rect x="0.5" y="0.5" width="14" height="30" fill="none"/>
    </g>
    <g id="長方形_73" data-name="長方形 73" transform="translate(1110 379)" fill="#fff" stroke="#fff" stroke-width="1">
      <rect width="140" height="39" rx="1" stroke="none"/>
      <rect x="0.5" y="0.5" width="139" height="38" rx="0.5" fill="none"/>
    </g>
    <g id="楕円形_31" data-name="楕円形 31" transform="translate(1096 407)" fill="#fff" stroke="#41a092" stroke-width="2">
      <circle cx="11" cy="11" r="11" stroke="none"/>
      <circle cx="11" cy="11" r="10" fill="none"/>
    </g>
    <g id="楕円形_32" data-name="楕円形 32" transform="translate(1210 407)" fill="#fff" stroke="#41a092" stroke-width="2">
      <circle cx="11" cy="11" r="11" stroke="none"/>
      <circle cx="11" cy="11" r="10" fill="none"/>
    </g>
    <g id="楕円形_33" data-name="楕円形 33" transform="translate(1235 407)" fill="#fff" stroke="#41a092" stroke-width="2">
      <circle cx="11" cy="11" r="11" stroke="none"/>
      <circle cx="11" cy="11" r="10" fill="none"/>
    </g>
    <line id="線_38" data-name="線 38" y2="32" transform="translate(1075.3 380.5)" fill="none" stroke="#41a092" stroke-linecap="round" stroke-width="1"/>
    <g id="楕円形_34" data-name="楕円形 34" transform="translate(1071 407)" fill="#fff" stroke="#41a092" stroke-width="2">
      <circle cx="11" cy="11" r="11" stroke="none"/>
      <circle cx="11" cy="11" r="10" fill="none"/>
    </g>
    <path id="パス_60" data-name="パス 60" d="M-8.67-5.85c0-2.04-1.17-4.2-3.9-5.7-1.29-.72-3.42-1.68-4.77-2.4a4,4,0,0,1-2.37-3.42c0-1.77,1.47-3.36,3.93-3.36a4.885,4.885,0,0,1,4.26,1.95,1,1,0,0,0,.84.51.956.956,0,0,0,.9-.96c0-.96-2.22-3.09-5.97-3.09s-5.79,2.43-5.79,5.01a5.53,5.53,0,0,0,3.3,4.89c1.62.81,3.27,1.62,4.8,2.49a4.889,4.889,0,0,1,2.82,4.11c0,2.25-2.04,4.08-4.92,4.08a26.124,26.124,0,0,0-4.248.333A11.473,11.473,0,0,0-25.579.862a8.573,8.573,0,0,0-2.8,5.171,6.224,6.224,0,0,1,1.981-3.688A7.888,7.888,0,0,1-23.026.625c1.905-.521,1.746-.29,4.1-.488,1-.085,3.3.313,4.026.313C-10.309.45-8.67-3.03-8.67-5.85ZM4.2-.9a.794.794,0,0,0,.84.784.8.8,0,0,0,.812-.84c.028-.756.028-1.9.028-3.08,0-1.932-.028-4-.056-4.9A4.458,4.458,0,0,0,1.152-13.44a5.247,5.247,0,0,0-4.144,1.9c-.056.056-.084.112-.112.112s-.056-.056-.056-.14c0-.588.028-7.224.028-8.26a.778.778,0,0,0-.84-.784.765.765,0,0,0-.84.7v.028c.028,1.288.028,4.116.028,7.252,0,4.452-.028,9.52-.084,11.7V-.9A.818.818,0,0,0-4-.112a.749.749,0,0,0,.812-.756V-.9c-.028-1.008-.028-1.96-.028-2.856,0-1.988.028-3.64.056-4.508A4.081,4.081,0,0,1,.984-11.9,3.118,3.118,0,0,1,4.2-8.624c.028.448.056,1.428.056,2.576C4.26-4.284,4.232-2.1,4.2-.924ZM21.256-12.46a.818.818,0,0,0-.868-.784.749.749,0,0,0-.812.756v.028c.028,1.484.056,2.94.056,4.424,0,.952-.028,1.9-.056,2.856A4.078,4.078,0,0,1,15.432-1.4a3.083,3.083,0,0,1-3.164-3.248c-.028-.448-.056-1.428-.056-2.6,0-1.82.028-4.032.056-5.208v-.028a.794.794,0,0,0-.84-.784.763.763,0,0,0-.812.812c-.028.588-.028,1.4-.028,2.268,0,2.128.056,4.732.084,5.74A4.381,4.381,0,0,0,15.32.028a5.384,5.384,0,0,0,4.508-2.24c.028-.056.056-.056.084-.056s.028.028.056.14c.056.476.448,1.96,1.372,1.96a.839.839,0,0,0,.868-.784.97.97,0,0,0-.2-.56c-.728-1.036-.84-2.324-.84-4.116,0-2.352.028-4.648.084-6.8Z" transform="translate(1095.813 354.929) rotate(-8)" fill="#fff" stroke="#fff" stroke-width="3"/>
    <path id="パス_61" data-name="パス 61" d="M-5.325-4.38a1.121,1.121,0,0,0-1.11-1.08,1.014,1.014,0,0,0-.87.48,8.529,8.529,0,0,1-6.84,3.06c-5.85,0-8.73-4.74-8.73-9.18,0-4.26,2.91-9.48,8.82-9.48a7.411,7.411,0,0,1,5.88,2.61,1.04,1.04,0,0,0,.84.45.98.98,0,0,0,.99-.99c0-1.08-2.97-3.78-7.56-3.78-7.2,0-10.92,5.73-10.92,11.31,0,5.61,3.78,10.98,10.74,10.98C-8.805,0-5.325-3.27-5.325-4.38ZM7.459-.9a.794.794,0,0,0,.84.784.8.8,0,0,0,.812-.84c.028-.756.028-1.9.028-3.08,0-1.932-.028-4-.056-4.9A4.458,4.458,0,0,0,4.407-13.44a5.247,5.247,0,0,0-4.144,1.9c-.056.056-.084.112-.112.112s-.056-.056-.056-.14c0-.588.028-7.224.028-8.26a.778.778,0,0,0-.84-.784.765.765,0,0,0-.84.7v.028c.028,1.288.028,4.116.028,7.252,0,4.452-.028,9.52-.084,11.7V-.9a.818.818,0,0,0,.868.784A.749.749,0,0,0,.067-.868V-.9C.039-1.9.039-2.856.039-3.752c0-1.988.028-3.64.056-4.508A4.081,4.081,0,0,1,4.239-11.9a3.118,3.118,0,0,1,3.22,3.276c.028.448.056,1.428.056,2.576,0,1.764-.028,3.948-.056,5.124ZM24.511-12.46a.818.818,0,0,0-.868-.784.749.749,0,0,0-.812.756v.028c.028,1.484.056,2.94.056,4.424,0,.952-.028,1.9-.056,2.856A4.078,4.078,0,0,1,18.687-1.4a3.083,3.083,0,0,1-3.164-3.248c-.028-.448-.056-1.428-.056-2.6,0-1.82.028-4.032.056-5.208v-.028a.794.794,0,0,0-.84-.784.763.763,0,0,0-.812.812c-.028.588-.028,1.4-.028,2.268,0,2.128.056,4.732.084,5.74A4.381,4.381,0,0,0,18.575.028a5.384,5.384,0,0,0,4.508-2.24c.028-.056.056-.056.084-.056s.028.028.056.14c.056.476.448,1.96,1.372,1.96a.839.839,0,0,0,.868-.784.97.97,0,0,0-.2-.56c-.728-1.036-.84-2.324-.84-4.116,0-2.352.028-4.648.084-6.8Z" transform="translate(1150.278 347.274) rotate(-8)" fill="#fff" stroke="#fff" stroke-width="3"/>
    <path id="パス_62" data-name="パス 62" d="M-.8-19.038h-8.36V-21.2H-.8ZM13.11-11.666A1.174,1.174,0,0,0,14.4-13a1.162,1.162,0,0,0-1.292-1.292H2.166V-16.53h9.348a1.123,1.123,0,0,0,1.254-1.254,1.123,1.123,0,0,0-1.254-1.254H2.166V-21.2h9.272a1.123,1.123,0,0,0,1.254-1.254,1.123,1.123,0,0,0-1.254-1.254H2.166v-2.242h10.64A1.162,1.162,0,0,0,14.1-27.246a1.162,1.162,0,0,0-1.292-1.292H2.546a6.746,6.746,0,0,0,.76-2.09,1.392,1.392,0,0,0-1.52-1.292,1.481,1.481,0,0,0-1.6,1.14,20.665,20.665,0,0,1-.95,2.242H-6.878a5.624,5.624,0,0,0,1.064-2.2,1.656,1.656,0,0,0-1.748-1.482c-.646,0-1.1.38-1.558,1.216a30.092,30.092,0,0,1-6.688,8.74c-.684.684-.912.95-.912,1.558a1.665,1.665,0,0,0,1.6,1.634c.988,0,2.052-1.216,2.926-2.356v7.524a1.965,1.965,0,0,0,2.2,2.242h8.436v2.318h-14.1a1.363,1.363,0,0,0-1.52,1.52,1.352,1.352,0,0,0,1.52,1.482H-4.712a39.487,39.487,0,0,1-10.6,5.662c-1.064.342-1.938.608-1.938,1.672a1.488,1.488,0,0,0,1.6,1.634c1.6,0,9.2-3.306,14.1-7.866V1.9A1.4,1.4,0,0,0,0,3.458,1.414,1.414,0,0,0,1.6,1.9V-5.32C7.144-.342,14.668,2.394,15.732,2.394A1.557,1.557,0,0,0,17.366.684c0-.912-.418-1.216-1.672-1.634a37.762,37.762,0,0,1-5.586-2.318,35.951,35.951,0,0,1-5.13-3.078H15.542a1.341,1.341,0,0,0,1.482-1.482,1.352,1.352,0,0,0-1.482-1.52H1.6v-2.318ZM-.8-23.712h-8.36v-1.216c.228-.342.418-.684.684-1.026H-.8Zm0,9.424H-8.55c-.494,0-.608-.152-.608-.608V-16.53H-.8Z" transform="translate(1189 413)" fill="#41a092"/>
    <path id="パス_63" data-name="パス 63" d="M-12.276-17.05a.906.906,0,0,0-1.012-1.012.9.9,0,0,0-.99,1.012V.33a.883.883,0,0,0,.99.99A.89.89,0,0,0-12.276.33V-9.922a41.4,41.4,0,0,1,5.72,3.036,2.452,2.452,0,0,0,1.276.594,1.133,1.133,0,0,0,.99-1.166c0-.352-.154-.682-.7-1.078a39.042,39.042,0,0,0-7.282-3.608ZM3.058-1.232A1.223,1.223,0,0,0,4.334.154c1.848,0,8.338-2.6,13.354-7.9.638-.682,1.21-1.364,1.21-1.914a1.182,1.182,0,0,0-1.188-1.1c-.572,0-.792.33-1.342.99a22.884,22.884,0,0,1-5.016,4.532A17.247,17.247,0,0,1,5.39-2.464c-.132,0-.2-.11-.2-.264v-12.98a.974.974,0,0,0-1.078-1.078.967.967,0,0,0-1.056,1.078Z" transform="translate(1226 401)" fill="#41a092"/>
  </g>
</svg>
