<svg xmlns="http://www.w3.org/2000/svg" width="22.269" height="16.824" viewBox="0 0 22.269 16.824">
  <g id="ノートのアイコン素材2" transform="translate(0 -59.593)">
    <path id="パス_2" data-name="パス 2" d="M19.668,64.489V62.96a.368.368,0,0,0-.368-.367H16.275a3.236,3.236,0,0,0-.569.06,7.669,7.669,0,0,0-1.252.355,9.328,9.328,0,0,0-2.089,1.078,5.962,5.962,0,0,0-.905.774,4.377,4.377,0,0,0-.325.389,4.766,4.766,0,0,0-.776-.814,8.646,8.646,0,0,0-2.346-1.352,8.891,8.891,0,0,0-1.121-.36c-.171-.041-.332-.074-.482-.1a2.914,2.914,0,0,0-.415-.034H2.967a.368.368,0,0,0-.367.367v1.529H0V78.5l10.142.612v.306h1.984v-.306L22.269,78.5V64.489ZM9.556,77.855a15.881,15.881,0,0,0-1.725-.383c-.576-.1-1.123-.163-1.562-.2-.856-.061-2.2-.116-3.339-.156-.707-.025-1.331-.043-1.7-.054V65.693H2.6V76.051a.368.368,0,0,0,.367.368H5.994a2.512,2.512,0,0,1,.437.048,7.158,7.158,0,0,1,1.13.321,8.647,8.647,0,0,1,1.92.989l.127.092Zm1.211.052c-.128-.133-.266-.26-.409-.381a8.626,8.626,0,0,0-2.346-1.351,8.669,8.669,0,0,0-1.121-.36c-.171-.042-.332-.073-.482-.1a2.74,2.74,0,0,0-.415-.035H3.335V63.328H5.994a2.5,2.5,0,0,1,.437.047,6.965,6.965,0,0,1,1.13.322,8.589,8.589,0,0,1,1.92.989,5.163,5.163,0,0,1,.792.676,3.018,3.018,0,0,1,.493.682V77.907Zm.734,0V66.047A3.518,3.518,0,0,1,12.383,65a7.933,7.933,0,0,1,2.142-1.23,8.113,8.113,0,0,1,1.025-.33c.152-.037.293-.065.416-.083a2.059,2.059,0,0,1,.309-.026h2.659V75.684H16.275a3.305,3.305,0,0,0-.569.06,7.741,7.741,0,0,0-1.252.355,9.357,9.357,0,0,0-2.089,1.078A5.934,5.934,0,0,0,11.5,77.908Zm9.541-.851H17.606c-.192,0-.423.014-.688.039-.464.045-1.03.124-1.63.229a23.746,23.746,0,0,0-2.677.617l-.077.023a8.179,8.179,0,0,1,1.991-1.107,7.9,7.9,0,0,1,1.025-.33c.152-.037.293-.065.416-.083a2.163,2.163,0,0,1,.309-.026H19.3a.368.368,0,0,0,.368-.368V65.693h1.373Z" transform="translate(0 -3)" fill="#fff"/>
  </g>
</svg>
