<svg xmlns="http://www.w3.org/2000/svg" width="395.65" height="108.68" viewBox="0 0 395.65 108.68">
  <g id="グループ_55" data-name="グループ 55" transform="translate(-3860.288 -1030.992)">
    <path id="パス_10" data-name="パス 10" d="M5,0H75a5,5,0,0,1,5,5V55a5,5,0,0,1-5,5H5a5,5,0,0,1-5-5V5A5,5,0,0,1,5,0Z" transform="translate(4139 1052)" fill="#4e4e4e"/>
    <path id="パス_11" data-name="パス 11" d="M0,0V42" transform="translate(4179.5 1061.5)" fill="none" stroke="#fff" stroke-width="2" stroke-dasharray="6"/>
    <path id="パス_12" data-name="パス 12" d="M-.257-23.773a7.025,7.025,0,0,1,6.674,3.8A17.009,17.009,0,0,1,8.01-11.92,19.389,19.389,0,0,1,6.566-3.9,7.071,7.071,0,0,1-.274.647,6.849,6.849,0,0,1-6.649-3.071a17.027,17.027,0,0,1-1.743-8.334,20.591,20.591,0,0,1,1.046-6.956Q-5.387-23.773-.257-23.773Zm-.033,21.7a4.252,4.252,0,0,0,3.7-2.059Q4.79-6.192,4.79-11.8a18.95,18.95,0,0,0-1-6.666A3.79,3.79,0,0,0-.075-21.084,4.044,4.044,0,0,0-3.935-18.6a17.139,17.139,0,0,0-1.22,7.313,17.958,17.958,0,0,0,.78,5.844Q-3.179-2.075-.291-2.075Z" transform="translate(4161 1094)" fill="#fff"/>
    <path id="パス_13" data-name="パス 13" d="M-6.2-16.834v-2.291a12.173,12.173,0,0,0,4.516-1.054q1.278-.739,1.909-3.495H2.582V0H-.606V-16.834Z" transform="translate(4198 1094)" fill="#fff"/>
    <path id="パス_14" data-name="パス 14" d="M-6.27-12.694H-7.964a9.662,9.662,0,0,1-1.782-.11v1.43a10.142,10.142,0,0,1,1.76-.11h1.54a19.06,19.06,0,0,1-1.21,3.1A16.716,16.716,0,0,1-10.3-4.4,5.083,5.083,0,0,1-9.5-3.146,17.714,17.714,0,0,0-6.16-9.57c-.066,1.056-.11,2.816-.11,3.476V-.836A17.34,17.34,0,0,1-6.4,1.672H-4.8A14.022,14.022,0,0,1-4.928-.836V-6.6c0-.594-.066-2.046-.11-3.19a10.853,10.853,0,0,0,2,3.7A4.521,4.521,0,0,1-2.31-7.26a11.263,11.263,0,0,1-2.6-4.224h1.078a10.213,10.213,0,0,1,1.474.088v-1.386a8.644,8.644,0,0,1-1.452.088H-4.928v-3.564a18.214,18.214,0,0,0,2.178-.836,3.914,3.914,0,0,1,.55-.242l-.88-1.122C-4.2-17.6-6.4-16.94-9.526-16.522a4.13,4.13,0,0,1,.616,1.144c1.188-.2,1.584-.286,2.64-.528ZM4.444-15.862a13.366,13.366,0,0,1,.132-2.244H2.948a13.516,13.516,0,0,1,.132,2.2V-7c0,.44-.154.572-.616.572a14.574,14.574,0,0,1-2.178-.2A5,5,0,0,1,.55-5.28c.836.066,1.628.088,2.09.088,1.32,0,1.8-.418,1.8-1.562Zm1.584.968a22.288,22.288,0,0,0,3.19,7.018A6.31,6.31,0,0,1,10.3-8.932a17.343,17.343,0,0,1-3.014-6.336ZM-.33-15.048a16.339,16.339,0,0,1-2.046,7.3,4.611,4.611,0,0,1,1.232.814,20.652,20.652,0,0,0,2.178-7.788Zm7.37,6.2A11.981,11.981,0,0,1,4.818-4.6,14.931,14.931,0,0,1-3.454.352a3.937,3.937,0,0,1,.77,1.32A19.182,19.182,0,0,0-.55.946,21,21,0,0,0,2.992-.968,14.514,14.514,0,0,0,7.766-6.776,7.637,7.637,0,0,1,8.36-7.964Z" transform="translate(4202 1138)" fill="#707070"/>
    <path id="パス_15" data-name="パス 15" d="M5.424-7.86c.132-.408.2-.66.312-1.044.132-.468.2-.708.288-.936L5.1-9.972A8.689,8.689,0,0,1,4.62-7.86H2.136A7.114,7.114,0,0,1,.8-7.932v.888a10,10,0,0,1,1.32-.072h2.22A10.271,10.271,0,0,1,.54-2.328,4.546,4.546,0,0,1,1.1-1.68a12.57,12.57,0,0,0,2.16-2.136c-.012.324-.012.324-.012.78L3.24-.552A10.187,10.187,0,0,1,3.18.816h.852V.108H9.24v.72H10.1a8.018,8.018,0,0,1-.072-1.26V-3.5a8.543,8.543,0,0,1,.06-1.164,9.125,9.125,0,0,1-1.3.06H3.852a13.258,13.258,0,0,0,1.3-2.508H9.984a8.784,8.784,0,0,1,1.3.072v-.888a8.528,8.528,0,0,1-1.308.072ZM4.032-3.9h5.22V-.6H4.032ZM18.168-5.316H21.2a9.211,9.211,0,0,1,1.248.072v-.924A8.966,8.966,0,0,1,21.2-6.1H18.168v-2.46A8.272,8.272,0,0,1,18.252-9.8h-1.02a8.382,8.382,0,0,1,.084,1.248v8.1H14.1a11.375,11.375,0,0,1-1.416-.072V.384A10.573,10.573,0,0,1,14.1.3h7.992a9.5,9.5,0,0,1,1.344.084V-.528a10.662,10.662,0,0,1-1.344.072H18.168Zm12.48-2.64a3.453,3.453,0,0,1,1.392.3,3.163,3.163,0,0,1,1.908,3.012,3.622,3.622,0,0,1-2.124,3.36,7.193,7.193,0,0,1-2,.564,1.907,1.907,0,0,1,.42.8,9.283,9.283,0,0,0,1.824-.552,4.369,4.369,0,0,0,2.748-4.14,4.017,4.017,0,0,0-1.164-2.928,4.645,4.645,0,0,0-3.3-1.188,5.012,5.012,0,0,0-3.876,1.6,4.992,4.992,0,0,0-1.26,3.312c0,1.68.852,2.928,1.992,2.928.864,0,1.572-.72,2.268-2.3A17.988,17.988,0,0,0,30.648-7.956Zm-.864.012A16.482,16.482,0,0,1,28.692-3.5c-.516,1.176-1,1.74-1.5,1.74-.648,0-1.152-.888-1.152-2.04A4.15,4.15,0,0,1,28-7.38,3.79,3.79,0,0,1,29.784-7.944Zm9.12.708a6.61,6.61,0,0,1-1.3-.084l.012.912a7.234,7.234,0,0,1,1.272-.06l2.184-.012a7.808,7.808,0,0,1-.744,2.856,7.019,7.019,0,0,1-3.12,3.156,2.486,2.486,0,0,1,.612.708,8.666,8.666,0,0,0,3.144-3.18,9.049,9.049,0,0,0,.96-3.54l3.36-.012a26.422,26.422,0,0,1-.3,4.26c-.228,1.188-.42,1.476-1.008,1.476a5.067,5.067,0,0,1-1.548-.312,1.973,1.973,0,0,1,.132.756v.144a6.83,6.83,0,0,0,1.488.2c1.08,0,1.44-.432,1.74-2.076a32.735,32.735,0,0,0,.336-4.2,1.8,1.8,0,0,1,.1-.72l-.444-.384a1.917,1.917,0,0,1-.792.084l-3,.012c.036-.336.036-.48.06-.852a10.019,10.019,0,0,1,.1-1.548l-.972-.024a3.217,3.217,0,0,1,.048.624c0,.528-.024,1.188-.072,1.8Zm15.48-.42V-8.88a4.711,4.711,0,0,1,.06-.756H53.436a3.764,3.764,0,0,1,.06.768v1.212H50.952a10.25,10.25,0,0,1-1.1-.048,7.849,7.849,0,0,1,.048.972v1.62c0,.312-.024.7-.048.9h.984A8.546,8.546,0,0,1,50.8-5.1V-6.9h6.552a6.588,6.588,0,0,1-2.784,5.244A7.924,7.924,0,0,1,51.912-.492a2.457,2.457,0,0,1,.552.816A9.408,9.408,0,0,0,55.98-1.668a7.477,7.477,0,0,0,2.172-4.38c.156-1.02.156-1.02.264-1.212l-.492-.468a2.672,2.672,0,0,1-1.008.072Zm7.488-.18a13.251,13.251,0,0,1,2.856,2.352l.624-.744A15.632,15.632,0,0,0,62.46-8.484Zm.084,7.8a6.3,6.3,0,0,1,.72-.192,12.1,12.1,0,0,0,4.476-1.788A10.525,10.525,0,0,0,70.812-6.6a2.4,2.4,0,0,1-.732-.708,9.067,9.067,0,0,1-4.9,5.34,10.445,10.445,0,0,1-3.492.924ZM76.584.372A8.162,8.162,0,0,1,76.524-.9V-4.512a4.191,4.191,0,0,0-.048-.708l.024-.012a1.324,1.324,0,0,0,.372.2,24.466,24.466,0,0,1,4.476,2.376l.516-.888a29.761,29.761,0,0,0-5.34-2.532V-8.316a7.533,7.533,0,0,1,.06-1.248H75.552a7.115,7.115,0,0,1,.072,1.224V-.888a7.719,7.719,0,0,1-.072,1.26Zm11.076-9.1a1.326,1.326,0,0,1,.012.192,9.518,9.518,0,0,1-.12,1.128A13.9,13.9,0,0,1,86.316-3.24a7.714,7.714,0,0,1-1.74,2.376,2.627,2.627,0,0,1,.768.624C87.036-2,88.008-4.308,88.512-7.728a4.357,4.357,0,0,1,.156-.816Zm3.444.18a5.218,5.218,0,0,1,.156.792A14.418,14.418,0,0,0,94.524-.216a2.6,2.6,0,0,1,.744-.672,10.591,10.591,0,0,1-2.724-4.956,14.5,14.5,0,0,1-.552-2.88Zm3.228-1.1a1.365,1.365,0,0,0-1.368,1.356,1.365,1.365,0,0,0,1.368,1.356,1.362,1.362,0,0,0,1.356-1.356A1.347,1.347,0,0,0,94.332-9.648Zm0,.5a.855.855,0,0,1,.852.852.855.855,0,0,1-.852.852.858.858,0,0,1-.864-.852A.858.858,0,0,1,94.332-9.144Zm8.04,9.768a6.23,6.23,0,0,1-.048-1.044V-3.4a2.8,2.8,0,0,0-.048-.612,3.355,3.355,0,0,0,.348.18,24.905,24.905,0,0,1,3.96,2.1l.492-.792a26.159,26.159,0,0,0-4.392-2.088,13.242,13.242,0,0,0,2.784-2.484,2.054,2.054,0,0,1,.324-.324l-.444-.528a1.278,1.278,0,0,1-.528.084H102.3v-1.1a3.728,3.728,0,0,1,.06-.792h-.96a4.85,4.85,0,0,1,.048.816v1.08H99.216a6.088,6.088,0,0,1-1.164-.084v.9a10.031,10.031,0,0,1,1.164-.048l4.584-.024c.18,0,.372-.012.684-.036a13.443,13.443,0,0,1-4.032,2.964,16.3,16.3,0,0,1-3.468,1.236,2.521,2.521,0,0,1,.444.792,15.883,15.883,0,0,0,4.056-1.752.492.492,0,0,0-.012.132V-.4A6.053,6.053,0,0,1,101.4.624Zm8.856-9.768a5.337,5.337,0,0,1,.048.852,16.371,16.371,0,0,1-.54,5.148,5.936,5.936,0,0,1-2.028,2.76,2.217,2.217,0,0,1,.72.648A7.335,7.335,0,0,0,111.5-2.7c.456-1.212.552-2.1.648-5.352a5.978,5.978,0,0,1,.072-1.032Zm2.988-.084a4.815,4.815,0,0,1,.048,1.068l-.072,7.02a2.022,2.022,0,0,1-.084.816l.48.552A2,2,0,0,1,114.864.1c.168-.06.168-.06.384-.144a7.91,7.91,0,0,0,1.716-.876,6.818,6.818,0,0,0,2.412-3.084,3.355,3.355,0,0,1-.672-.7,5.934,5.934,0,0,1-1.416,2.4,5.546,5.546,0,0,1-2.232,1.392l.072-7.248a4.653,4.653,0,0,1,.072-1.056ZM121.14-7a39.949,39.949,0,0,1,4.14-.4,24.559,24.559,0,0,0,2.64-.264,7.855,7.855,0,0,0-1.14.636,4.566,4.566,0,0,0-2.244,3.684,2.905,2.905,0,0,0,1.332,2.448,6.053,6.053,0,0,0,2.592.924c.216.036.24.048.372.072l.156-.972h-.12a6.15,6.15,0,0,1-1.8-.384,2.353,2.353,0,0,1-1.68-2.22,3.668,3.668,0,0,1,1.476-2.772,5.9,5.9,0,0,1,2.3-1.2,5.033,5.033,0,0,1,1.344-.168L130.44-8.5a8.1,8.1,0,0,1-1.428.132l-.684.024c-.4.012-.552.024-2.028.108l-1.884.12c-1.476.084-1.548.1-2.22.144-.372.024-.516.036-.684.036-.084,0-.2,0-.432-.012Zm7.368,1.152a8.439,8.439,0,0,1,1.224,1.908l.612-.36a9.11,9.11,0,0,0-1.236-1.86Zm1.368-.648A9.5,9.5,0,0,1,131.1-4.608l.6-.336a9.725,9.725,0,0,0-1.236-1.872Zm12.228,3.8a7.864,7.864,0,0,1,1.128.072v-.8a6.819,6.819,0,0,1-1.116.072h-4.1a8.971,8.971,0,0,0,.18-1.152h2.424a5.763,5.763,0,0,1,1.032.06V-5.2a5.763,5.763,0,0,1-1.032.06H138.24c.024-.4.036-.684.048-1.068h2.52a6.331,6.331,0,0,1,1.152.072v-.78a7.008,7.008,0,0,1-1.152.072H138.3a4.32,4.32,0,0,1,.06-.972h-.888a4.376,4.376,0,0,1,.072.972h-2.328a7.109,7.109,0,0,1-1.152-.072v.78a7.423,7.423,0,0,1,1.152-.072h2.316c-.012.468-.012.6-.036,1.068h-2.232a5.914,5.914,0,0,1-1.044-.06v.756a5.832,5.832,0,0,1,1.044-.06h2.172a7.045,7.045,0,0,1-.168,1.152H133.98a6.657,6.657,0,0,1-1.1-.072v.8a7.928,7.928,0,0,1,1.116-.072h3.048a3.989,3.989,0,0,1-1.764,1.86,7.281,7.281,0,0,1-2.568.864,2.809,2.809,0,0,1,.444.756,8.275,8.275,0,0,0,2.724-1.1,4.629,4.629,0,0,0,1.884-2.244A7.953,7.953,0,0,0,142.932.816a3.1,3.1,0,0,1,.456-.78,9.137,9.137,0,0,1-3.324-1.224,5.612,5.612,0,0,1-1.56-1.5Zm-4.584-6.12h-3.3a11.835,11.835,0,0,1-1.212-.048,5.528,5.528,0,0,1,.048.816v.7a5.493,5.493,0,0,1-.048.828h.792V-8.148h8.448v1.632h.78a5.394,5.394,0,0,1-.048-.828v-.708a5.465,5.465,0,0,1,.048-.8,11.736,11.736,0,0,1-1.2.048H138.3v-.456a3.816,3.816,0,0,1,.072-.744h-.936a3.145,3.145,0,0,1,.084.744Zm15.06,3.264v5.2c0,.24-.1.288-.5.288A12.031,12.031,0,0,1,150.384-.2a2.889,2.889,0,0,1,.192.828c.516.036,1.08.06,1.464.06,1.056,0,1.344-.2,1.344-.972V-5.544h.684a9.2,9.2,0,0,1,1.308.072v-.84a8.5,8.5,0,0,1-1.32.072h-4.212a9.117,9.117,0,0,1-1.332-.072v.84a9.231,9.231,0,0,1,1.332-.072Zm-5.22-4.44a4.693,4.693,0,0,1-1.092,1.464,8.255,8.255,0,0,1-1.584,1.272,2.32,2.32,0,0,1,.54.588,11.705,11.705,0,0,0,2.664-2.6,1.964,1.964,0,0,1,.216-.264ZM149-8.484a9.463,9.463,0,0,1,1.248-.072h3.36a9.271,9.271,0,0,1,1.236.072v-.84a8.432,8.432,0,0,1-1.236.072h-3.36A8.5,8.5,0,0,1,149-9.324Zm-2.556,7.9a9.1,9.1,0,0,1-.084,1.464h.948a9,9,0,0,1-.084-1.464V-5.436a8.116,8.116,0,0,0,.8-1.08,5.128,5.128,0,0,1,.36-.516l-.744-.42a4.125,4.125,0,0,1-.576,1.032,9.835,9.835,0,0,1-2.424,2.364,2.288,2.288,0,0,1,.468.684,6.926,6.926,0,0,0,1.368-1.344c-.024.576-.036.924-.036,1.44Zm16.872-7.26v1.56h-1.6a7.964,7.964,0,0,1-1.212-.072v.8a8.77,8.77,0,0,1,1.212-.072H165.1v1.4h-3.372a7.645,7.645,0,0,1-1.212-.072v.828a8.957,8.957,0,0,1,1.2-.072H165.1v3.3c0,.264-.084.312-.54.312a8.71,8.71,0,0,1-1.368-.144,2.135,2.135,0,0,1,.192.792c.7.036.888.048,1.08.048,1.116,0,1.38-.18,1.38-.948V-3.54h.372a7.99,7.99,0,0,1,1.176.072V-4.3a7.341,7.341,0,0,1-1.176.072h-.372v-1.4h.4a7.7,7.7,0,0,1,1.164.072v-.8a7.856,7.856,0,0,1-1.212.072h-2.124v-1.56h1.7a9.9,9.9,0,0,1,1.14.06V-8.58a7.253,7.253,0,0,1-1.14.072h-1.7v-.384a5.843,5.843,0,0,1,.072-.972h-.888a6.161,6.161,0,0,1,.072.972v.384h-1.272a7.045,7.045,0,0,1-1.14-.072v.792a10.459,10.459,0,0,1,1.152-.06Zm-6.156,6.576A9.594,9.594,0,0,1,157.092,0h.78V-.984h1.572v.6h.744c-.024-.264-.036-.576-.036-1.152V-8.112a8.888,8.888,0,0,1,.036-1.176,10.313,10.313,0,0,1-1.08.036h-.888a10.765,10.765,0,0,1-1.1-.036,9.935,9.935,0,0,1,.048,1.152Zm.708-7.308h1.572V-5.6h-1.572Zm0,3.624h1.572v3.3h-1.572Zm5.76,3.84A12.913,12.913,0,0,0,161.9-3.072l-.588.42a10.89,10.89,0,0,1,1.668,2.016Zm6.276-4.74h2.2c.48,0,.888.012,1.212.036-.024-.3-.036-.636-.036-1.116V-8.424c0-.444.012-.8.036-1.14a10.529,10.529,0,0,1-1.224.048h-1.716a11.107,11.107,0,0,1-1.26-.048c.036.384.048.732.048,1.32V-.492a8.969,8.969,0,0,1-.072,1.344h.888a8.647,8.647,0,0,1-.072-1.344Zm0-3.072H172.6v.96h-2.688Zm0,1.524H172.6v.972h-2.688Zm8.916-.84a11.354,11.354,0,0,1,.06-1.32,11.107,11.107,0,0,1-1.26.048h-1.98a10.4,10.4,0,0,1-1.224-.048c.024.36.036.72.036,1.14v1.488c0,.444-.012.8-.036,1.116.324-.024.708-.036,1.212-.036h2.46v5.5c0,.288-.1.348-.588.348a13.05,13.05,0,0,1-1.32-.12,2.754,2.754,0,0,1,.216.768c.3.024.948.048,1.2.048.972,0,1.224-.2,1.224-1Zm-3.684-.684h2.952v.96H175.14Zm0,1.524h2.952v.972H175.14Zm1.068,3.624c0-.48.012-.792.036-1.128a10.631,10.631,0,0,1-1.188.048h-2.2a10.769,10.769,0,0,1-1.188-.048c.024.348.036.7.036,1.128v2.664a7.4,7.4,0,0,1-.06,1.128h.744v-.84h2.628c.492,0,.888.012,1.224.036-.024-.312-.036-.636-.036-1.092Zm-3.816-.48h3.132v1.068h-3.132Zm0,1.668h3.132v1.164h-3.132Zm11.772-5.484a16.791,16.791,0,0,1-2.568-.132l-.012.828a2.128,2.128,0,0,1,.264-.012h.192c.444.012,1.572.036,1.764.036a1.329,1.329,0,0,0,.228-.024l-.108.18a11.941,11.941,0,0,1-2.688,3.432l.672.672a3.971,3.971,0,0,1,.924-1,4.508,4.508,0,0,1,2.676-1.272c.564,0,.852.288.948.948a9.315,9.315,0,0,0-1.788.96,2.481,2.481,0,0,0-1.224,1.9c0,1.236,1.044,1.848,3.192,1.848a18.616,18.616,0,0,0,2.916-.24,4.722,4.722,0,0,1,.48-.06l-.108-.924a10.055,10.055,0,0,1-3.2.468c-1.692,0-2.436-.348-2.436-1.14,0-.72.624-1.284,2.256-2.052a3.151,3.151,0,0,1,.012.36,17.253,17.253,0,0,1-.072,1.728l.816-.012a2.608,2.608,0,0,1-.024-.432c0-.108,0-.276.012-.54.012-.24.012-.5.012-.66,0-.3,0-.42-.024-.732A19.924,19.924,0,0,1,190.476-5l-.384-.84a2.64,2.64,0,0,1-.816.348c-.528.192-1.212.444-2.088.792A1.456,1.456,0,0,0,185.6-6.036a3.193,3.193,0,0,0-1.812.588c-.12.084-.12.084-.552.42a.092.092,0,0,1-.024-.036v-.012a.012.012,0,0,0,.012-.012c.012-.012.072-.06.156-.12.048-.036.288-.312.408-.456a8.849,8.849,0,0,0,1.08-1.7,38.746,38.746,0,0,0,3.96-.312,3.741,3.741,0,0,1,.48-.06l-.072-.816a16.889,16.889,0,0,1-3.78.456,2.043,2.043,0,0,0-.252.012c.06-.108.216-.432.372-.816a2.548,2.548,0,0,1,.312-.648l-.96-.168a5.093,5.093,0,0,1-.576,1.644Zm17-1.4A5.013,5.013,0,0,1,199.8-8.9a19.281,19.281,0,0,1-5.04.756c-.18,0-.36,0-.7-.024a3.13,3.13,0,0,1,.288.8A22.76,22.76,0,0,0,197.9-7.7c0,1.056-.012,1.728-.036,2.256h-3.444a5.7,5.7,0,0,1-1.26-.084v.912a9.292,9.292,0,0,1,1.26-.06H197.8a4.513,4.513,0,0,1-.732,2.352,5.609,5.609,0,0,1-2.808,2.064A2.273,2.273,0,0,1,194.9.48a6.47,6.47,0,0,0,2.988-2.508,5.714,5.714,0,0,0,.78-2.652h2.94a9.292,9.292,0,0,1,1.26.06v-.912a5.7,5.7,0,0,1-1.26.084h-2.88c.012-.468.024-1.248.036-2.4a18.6,18.6,0,0,0,2.64-.744,2.48,2.48,0,0,1,.372-.12Zm9.18,4.6H212.2a5.72,5.72,0,0,1,1.056.048v-.84a6.089,6.089,0,0,1-1.068.072H207.8a6.28,6.28,0,0,1-1.068-.072v.84a7.82,7.82,0,0,1,1.068-.048h1.716V-.732h-2.436A4.9,4.9,0,0,1,206-.8V.048A8.462,8.462,0,0,1,207.1,0H212.9A8.7,8.7,0,0,1,214,.048v-.84a6.042,6.042,0,0,1-1.08.06h-2.568Zm7.9-1.452a9.9,9.9,0,0,1,1.128,2.688l.816-.276A13.178,13.178,0,0,0,219-6.588Zm2.472-.5a10.528,10.528,0,0,1,1.1,2.628l.792-.276a12.033,12.033,0,0,0-1.164-2.58Zm4.164-.012v.12a5.044,5.044,0,0,1-.132.816,9.054,9.054,0,0,1-1.02,2.58,7.7,7.7,0,0,1-3.8,3.132,2.427,2.427,0,0,1,.552.672A8.7,8.7,0,0,0,224.448-3,10.8,10.8,0,0,0,225.5-5.688a7.08,7.08,0,0,1,.264-.972ZM233.1-9.78a5.442,5.442,0,0,1-.756,1.752,8.89,8.89,0,0,1-3.012,3.288,1.784,1.784,0,0,1,.672.624,11.568,11.568,0,0,0,2.868-3.12l4.044-.072a11.026,11.026,0,0,1-2.064,4.02,10.207,10.207,0,0,1-4.236,3.036,1.809,1.809,0,0,1,.6.708,11.751,11.751,0,0,0,4.176-3,12.7,12.7,0,0,0,2.4-4.512c.132-.432.132-.444.24-.588l-.516-.5a1.179,1.179,0,0,1-.624.084c-3.468.06-3.468.06-3.624.1a11.484,11.484,0,0,0,.552-1.068,2.292,2.292,0,0,1,.264-.492Zm13.344,7.536c-.024-.3-.036-.516-.036-.732,0-.048,0-.048.012-.552l.1-4.272c.012-.5.036-.864.072-1.32H245.4c.048.456.06.816.072,1.32l.108,4.272V-3.1c0,.4,0,.48-.024.852ZM246.588,0V-1.128h-1.164V0ZM9.348,25.756v7.428c0,.264-.1.312-.672.312A10.616,10.616,0,0,1,7.2,33.4a3.653,3.653,0,0,1,.336,1.344H7.98c.252.012.444.012.528.012a4.783,4.783,0,0,0,1.572-.168c.36-.144.54-.492.54-1.08V25.756c.408.012.564.012.888.048V24.5a11.869,11.869,0,0,1-1.356.072H5.616a11.286,11.286,0,0,1-1.38-.072v1.32a13.407,13.407,0,0,1,1.392-.06Zm-6.2,1.14a24.77,24.77,0,0,0,1.044-2.664l-1.32-.468a8.567,8.567,0,0,1-.636,2.028A10.333,10.333,0,0,1,.288,28.744,5.835,5.835,0,0,1,.96,30.088a9.816,9.816,0,0,0,.948-1.332c-.024.492-.036.756-.036,1.344v3.348A14.592,14.592,0,0,1,1.8,35H3.2c-.036-.444-.06-.9-.06-1.548Zm5.112,1.02a9.114,9.114,0,0,1,.036-.936,8.238,8.238,0,0,1-.924.036H5.28a6.837,6.837,0,0,1-.96-.048,7.485,7.485,0,0,1,.048.972v3.672a5.907,5.907,0,0,1-.06.948h1.26V31.7h1.8a8.238,8.238,0,0,1,.924.036,9.114,9.114,0,0,1-.036-.936Zm-2.688.228H7.08v2.412H5.568Zm8.76-1.164H13.56a4.666,4.666,0,0,1-.9-.06v1.272a4.969,4.969,0,0,1,.864-.06H14.2a8.864,8.864,0,0,1-1.812,3.3,4.364,4.364,0,0,1,.576,1.26,7.478,7.478,0,0,0,1.416-2.6c-.024.636-.024.648-.036.744-.012.336-.012.336-.012.72V33.58a11.033,11.033,0,0,1-.072,1.4h1.368a10.228,10.228,0,0,1-.06-1.416v-2.58a11.492,11.492,0,0,0-.072-1.236,5.265,5.265,0,0,0,.984,1.584,4.778,4.778,0,0,1,.552-1.116,5.987,5.987,0,0,1-1.464-2.088h.444a5.03,5.03,0,0,1,.78.048V26.932a4.432,4.432,0,0,1-.756.048h-.468v-1.6a8.5,8.5,0,0,0,.816-.3c.3-.132.552-.24.624-.264l-.8-1.056a8.43,8.43,0,0,1-3.552,1.02,4.867,4.867,0,0,1,.468,1.116c.708-.12.876-.156,1.212-.216Zm6.408-1.836a8.671,8.671,0,0,1,.06-1.2h-1.38a9.741,9.741,0,0,1,.06,1.164v4.644c0,.252-.072.324-.336.324a5.9,5.9,0,0,1-.972-.1,4.806,4.806,0,0,1,.228,1.2c.36.012.552.012.684.012,1.308,0,1.656-.228,1.656-1.092Zm.432.576a11.9,11.9,0,0,0,1.62,4.08c.18-.168.18-.168.588-.6a3.828,3.828,0,0,1,.42-.384,8.826,8.826,0,0,1-.876-1.524,9.758,9.758,0,0,1-.672-1.9ZM17.712,25.5a8.907,8.907,0,0,1-1.14,4.02,4.975,4.975,0,0,1,1.08.852,12.331,12.331,0,0,0,1.212-4.608Zm4.08,3.684a6.27,6.27,0,0,1-2.952,3.564,8.51,8.51,0,0,1-2.616,1.032,4.074,4.074,0,0,1,.684,1.224,9.271,9.271,0,0,0,1.512-.54,12.293,12.293,0,0,0,1.944-1.176,8.217,8.217,0,0,0,2.244-2.76,4.242,4.242,0,0,1,.288-.5Zm8.8-5.388a6.87,6.87,0,0,1-1.26,1.788c-.228-.168-.312-.228-.624-.456l-.852.924a15.441,15.441,0,0,1,2.208,1.788l-.576.528c-.636.012-.636.012-.816.024h-.432a6.633,6.633,0,0,1-.732-.036l.156,1.3a16.967,16.967,0,0,1,2.148-.168A5.706,5.706,0,0,1,27.1,31.7a4.262,4.262,0,0,1,.792,1.044,7.865,7.865,0,0,0,1.416-.96,6.982,6.982,0,0,0,1,1.008,9.11,9.11,0,0,1-3.18,1.044A4.211,4.211,0,0,1,27.72,35a9.974,9.974,0,0,0,3.636-1.416A10.7,10.7,0,0,0,35.1,34.936a6.413,6.413,0,0,1,.588-1.308,10.793,10.793,0,0,1-3.2-.852,11.18,11.18,0,0,0,1.776-1.86c.084-.12.108-.144.192-.252l-.744-.684a9.435,9.435,0,0,1-.972.048H30.888a5.222,5.222,0,0,0,.36-.636c1.092-.084,1.092-.084,2.8-.276.168.288.24.432.528.948l1.08-.7a23.739,23.739,0,0,0-1.848-2.64l-1,.612c.336.42.444.564.636.828-1.344.108-1.344.108-2.28.144a29.68,29.68,0,0,0,2.352-2.46c.264-.324.348-.432.432-.516l-1.224-.66a11.994,11.994,0,0,1-1.8,2.28c-.264-.264-.384-.372-.72-.66a18.216,18.216,0,0,0,1.272-1.536c.2-.276.2-.276.312-.408Zm1.956,7.236a6.48,6.48,0,0,1-1.176,1.08,4.6,4.6,0,0,1-1.128-1.08Zm-5.652-7.284A5.881,5.881,0,0,1,24.444,26.1a4.318,4.318,0,0,1,.672,1.1A9.974,9.974,0,0,0,27.2,25.444c.3-.348.312-.36.756-.936ZM25.716,31.42v2.208a9.043,9.043,0,0,1-.072,1.32h1.392c-.036-.4-.048-.744-.048-1.416v-4.86c.1-.144.4-.552.612-.864.072-.1.12-.168.144-.192a5.838,5.838,0,0,1,.324-.492l-1.08-.708a5.472,5.472,0,0,1-.72,1.188,8.96,8.96,0,0,1-1.992,1.932,4.857,4.857,0,0,1,.564,1.272,5.579,5.579,0,0,0,.888-.864Zm12.612-6.78a6.682,6.682,0,0,1-.168.96,19.852,19.852,0,0,0-.54,4.752,17.2,17.2,0,0,0,.312,3.4c.036.228.048.288.072.48l.864-.072v-.18a10.46,10.46,0,0,1,.972-3.3l-.576-.276a11.149,11.149,0,0,0-.78,2.34c-.048-.636-.072-1.344-.072-2.28a17.74,17.74,0,0,1,.36-3.756,17.051,17.051,0,0,1,.5-1.92ZM40.8,26.908a15.984,15.984,0,0,0,1.92.12,20.258,20.258,0,0,0,2.58-.156q.792-.108.828-.108l-.06-.852a12.876,12.876,0,0,1-3.216.324,8.15,8.15,0,0,1-2.04-.18Zm.876,2.34a3.315,3.315,0,0,0-1.044,2.232,1.7,1.7,0,0,0,.36,1.1,3.335,3.335,0,0,0,2.748.912,12.38,12.38,0,0,0,2.46-.24c.24-.036.264-.048.42-.06l-.12-.924a7.9,7.9,0,0,1-2.76.42c-1.548,0-2.3-.432-2.3-1.32a2.788,2.788,0,0,1,.9-1.764ZM52.92,27.2a10.735,10.735,0,0,1-1.248-.048,6.939,6.939,0,0,1,.048.924v2.616a6.824,6.824,0,0,1-.048.924,10.09,10.09,0,0,1,1.248-.048h2.112a11.991,11.991,0,0,1,1.248.048,6.493,6.493,0,0,1-.048-.924V28.072a6.179,6.179,0,0,1,.048-.924,10.735,10.735,0,0,1-1.248.048Zm-.456.66h3.024V30.9H52.464Zm6.492,7.056a9.435,9.435,0,0,1-.072-1.416V26.044a12.888,12.888,0,0,1,.072-1.476,12.046,12.046,0,0,1-1.428.06H50.46a11.613,11.613,0,0,1-1.4-.06,13.187,13.187,0,0,1,.072,1.476v7.428a10.28,10.28,0,0,1-.072,1.44h.852V34.2h8.2v.708Zm-9.048-9.588h8.2v8.184h-8.2Zm13.7,7.452h1.044a6.186,6.186,0,0,1,1.032.06v-.768a5.562,5.562,0,0,1-1,.06h-1.08v-1.1h.78a7.775,7.775,0,0,1,1.092.048c-.024-.252-.036-.6-.036-1.188V27.94c0-.552.012-.888.036-1.128a7,7,0,0,1-1.044.048h-.828V25.8h1.14a6,6,0,0,1,1.044.06V25.1a6.223,6.223,0,0,1-1.068.06H63.612V25a6.029,6.029,0,0,1,.084-1.044h-.84A6.125,6.125,0,0,1,62.94,25v.156H61.824a6.068,6.068,0,0,1-1.056-.06v.768a6.168,6.168,0,0,1,1.044-.06H62.94V26.86h-.7a8.888,8.888,0,0,1-1.116-.048,9.8,9.8,0,0,1,.048,1.152v1.92a10.359,10.359,0,0,1-.048,1.188,9.642,9.642,0,0,1,1.164-.048h.648v1.1H61.716a5.914,5.914,0,0,1-1.044-.06v.768a6.325,6.325,0,0,1,1.056-.06H62.94v.972a6.594,6.594,0,0,1-.084,1.092h.84a6.45,6.45,0,0,1-.084-1.08Zm0-2.364V29.188h1.2v1.224Zm0-1.8v-1.14h1.2v1.14Zm-.672-1.14v1.14H61.812v-1.14Zm0,1.716v1.224H61.812V29.188Zm4.7-.312a18.649,18.649,0,0,1-.48,1.812,23.546,23.546,0,0,1-1.008,2.772,6.289,6.289,0,0,1-.9.048l.192.84c.228-.048.372-.072.66-.12,2.244-.324,3.132-.48,4.284-.732.108.312.108.312.42,1.224l.7-.384a29.408,29.408,0,0,0-1.92-4.32l-.648.288a21,21,0,0,1,1.224,2.58c-1.044.216-1.716.312-3.2.492a29.111,29.111,0,0,0,1.5-4.5h1.932a6.573,6.573,0,0,1,1.068.06V28.12a5.036,5.036,0,0,1-1.068.072H66.936a5.1,5.1,0,0,1-1.068-.072v.816a6.593,6.593,0,0,1,1.056-.06Zm-1.308-3.06a6.484,6.484,0,0,1,1.068-.06h2.568c.324,0,.624.012.78.024a1.459,1.459,0,0,0,.276.024v-.816a4.845,4.845,0,0,1-1.056.072H67.4a4.969,4.969,0,0,1-1.068-.072Zm12.3.192c-.816.024-1.752.048-2.9.1-1.932.072-1.932.072-2.28.072-.18,0-.264,0-.48-.012l.036.876c.8-.132,3.228-.252,5.64-.3v.624c0,.144.012.264.012.312,0,.444,0,.492.012.66a1.842,1.842,0,0,0-1.392-.54,2,2,0,0,0-2.124,1.98,2.006,2.006,0,0,0,3.48,1.248,1.681,1.681,0,0,0,.324-.588,3.108,3.108,0,0,1-1.344,2.532,6.15,6.15,0,0,1-1.944.9,2.635,2.635,0,0,1,.528.756,7.633,7.633,0,0,0,1.9-.972A3.862,3.862,0,0,0,79.7,30.52a3.438,3.438,0,0,0-.288-1.416V26.728c.972-.024,1.1-.024,1.284-.024a21.328,21.328,0,0,1,2.292.06v-.852c-.4.048-1.32.072-3.588.084v-.132a9.935,9.935,0,0,1,.06-1.5h-.9a4.044,4.044,0,0,1,.048.7Zm-.036,3.5a1.345,1.345,0,0,1-1.4,1.416A1.16,1.16,0,0,1,75.96,29.74a1.27,1.27,0,0,1,1.332-1.26,1.535,1.535,0,0,1,.8.192A.869.869,0,0,1,78.6,29.512Zm8.292-3.552a5.912,5.912,0,0,1,.648-.06c1.824-.06,3.264-.144,3.648-.216a.464.464,0,0,1,.108-.012l.024.024-.048.048-.048.048-.168.168c-.828.816-2.724,2.484-4.008,3.5a13.368,13.368,0,0,1-1.68,1.224l.54.768A7.7,7.7,0,0,1,90.96,29.4c1.62,0,2.58.684,2.58,1.836,0,1.02-.66,1.752-1.92,2.1a3.435,3.435,0,0,0-.552-1.152,2.417,2.417,0,0,0-1.98-.984,1.559,1.559,0,0,0-1.74,1.4c0,1.1.972,1.728,2.664,1.728,2.664,0,4.4-1.236,4.4-3.108,0-1.536-1.284-2.52-3.288-2.52a6.08,6.08,0,0,0-2.94.744l-.024-.036a30.792,30.792,0,0,0,3.948-3.408,2.215,2.215,0,0,1,.612-.5l-.5-.66a1.227,1.227,0,0,1-.576.132c-1.08.084-2.676.156-3.672.156a5.542,5.542,0,0,1-1.128-.072Zm3.936,7.6a4.321,4.321,0,0,1-.876.084,3.066,3.066,0,0,1-1.344-.276.819.819,0,0,1-.48-.732c0-.456.372-.744.972-.744C89.964,31.888,90.564,32.464,90.828,33.556ZM99.72,24.58a4.014,4.014,0,0,1,.2.756,24.444,24.444,0,0,0,.876,3.36,7.473,7.473,0,0,0-1.572.972,2.6,2.6,0,0,0-1.068,2.04,1.992,1.992,0,0,0,1.488,1.968,8.164,8.164,0,0,0,2.664.324,24.072,24.072,0,0,0,2.652-.156,6.219,6.219,0,0,1,.888-.072l-.1-1a11.915,11.915,0,0,1-3.432.408c-2.352,0-3.276-.42-3.276-1.512,0-1,.888-1.788,2.94-2.6A27.6,27.6,0,0,1,105.6,27.9l-.36-.912a6.489,6.489,0,0,1-.768.312c-1.86.648-2.2.78-2.9,1.068a20.872,20.872,0,0,1-.9-3.972ZM116.664,33.2v.732h.96a6.4,6.4,0,0,1-.06-1.1V25.756c-.132,0-.444.012-.948.024H111.2a6.3,6.3,0,0,1-1.38-.084v.96a9.329,9.329,0,0,1,1.38-.06h5.46V32.38h-5.712a5.678,5.678,0,0,1-1.308-.084v.96a4.047,4.047,0,0,1,.732-.048l.552-.012Zm.108-8.736A8.3,8.3,0,0,1,118,26.368l.6-.36a9.565,9.565,0,0,0-1.224-1.86Zm1.356-.636a9.237,9.237,0,0,1,1.236,1.884l.6-.348a9.7,9.7,0,0,0-1.248-1.86Zm2.556,6.06a13.109,13.109,0,0,1,1.488-.048h6.96a13.727,13.727,0,0,1,1.464.048v-.972a9.465,9.465,0,0,1-1.452.06h-6.972a8.489,8.489,0,0,1-1.488-.072Zm13.7-5.028a5.336,5.336,0,0,1,.048.852,16.371,16.371,0,0,1-.54,5.148,5.936,5.936,0,0,1-2.028,2.76,2.217,2.217,0,0,1,.72.648,7.335,7.335,0,0,0,2.076-2.964c.456-1.212.552-2.1.648-5.352a5.977,5.977,0,0,1,.072-1.032Zm2.988-.084a4.814,4.814,0,0,1,.048,1.068l-.072,7.02a2.022,2.022,0,0,1-.084.816l.48.552a2,2,0,0,1,.276-.132c.168-.06.168-.06.384-.144a7.91,7.91,0,0,0,1.716-.876,6.818,6.818,0,0,0,2.412-3.084,3.355,3.355,0,0,1-.672-.7,5.934,5.934,0,0,1-1.416,2.4,5.546,5.546,0,0,1-2.232,1.392l.072-7.248a4.653,4.653,0,0,1,.072-1.056Zm8.112-.132a6.683,6.683,0,0,1-.168.96,19.852,19.852,0,0,0-.54,4.752,17.2,17.2,0,0,0,.312,3.4c.036.228.048.288.072.48l.864-.072v-.18a10.46,10.46,0,0,1,.972-3.3l-.576-.276a11.149,11.149,0,0,0-.78,2.34c-.048-.636-.072-1.344-.072-2.28a17.74,17.74,0,0,1,.36-3.756,17.048,17.048,0,0,1,.5-1.92Zm2.472,2.268a15.984,15.984,0,0,0,1.92.12,20.258,20.258,0,0,0,2.58-.156q.792-.108.828-.108l-.06-.852a12.876,12.876,0,0,1-3.216.324,8.15,8.15,0,0,1-2.04-.18Zm.876,2.34a3.315,3.315,0,0,0-1.044,2.232,1.7,1.7,0,0,0,.36,1.1,3.335,3.335,0,0,0,2.748.912,12.38,12.38,0,0,0,2.46-.24c.24-.036.264-.048.42-.06l-.12-.924a7.9,7.9,0,0,1-2.76.42c-1.548,0-2.3-.432-2.3-1.32a2.788,2.788,0,0,1,.9-1.764Zm7.656-1.944a1.787,1.787,0,0,1,.2-.012h.048c.468.024.576.024,1,.024.444,0,.588,0,.828-.012a24.134,24.134,0,0,1-2.256,6.636l.876.372a31.622,31.622,0,0,0,1.38-3.66c.324-1.092.66-2.448.84-3.4a17.54,17.54,0,0,0,2.028-.288c.24-.048.24-.048.336-.06l-.06-.828a9.9,9.9,0,0,1-2.16.408c.06-.36.1-.528.156-.912a11.342,11.342,0,0,1,.216-1.14l-.948-.1a11.733,11.733,0,0,1-.264,2.208c-.348.024-.48.024-.72.024a8.276,8.276,0,0,1-1.5-.108Zm9.06.588c-.9-.036-1.08-.036-1.308-.036a13.6,13.6,0,0,0-3.18.4l.084.816a10.444,10.444,0,0,1,3-.408,12.047,12.047,0,0,1,1.416.084Zm-4.368,2.592c-.636.816-.8,1.188-.8,1.728,0,1.188,1.02,1.8,2.988,1.8a12.024,12.024,0,0,0,2.136-.2c.4-.06.4-.06.528-.084l-.084-.9a8.916,8.916,0,0,1-2.652.408c-1.368,0-2.1-.384-2.1-1.1a1.444,1.444,0,0,1,.3-.852,4.021,4.021,0,0,1,.36-.456Zm9.66-5.832a5.191,5.191,0,0,1,.2.768,24.232,24.232,0,0,0,.876,3.348,7.459,7.459,0,0,0-1.572.984,2.6,2.6,0,0,0-1.068,2.04,1.992,1.992,0,0,0,1.488,1.968,8.164,8.164,0,0,0,2.664.324,24.072,24.072,0,0,0,2.652-.156l.408-.048.12-.012a3.153,3.153,0,0,1,.36-.012l-.1-1a11.915,11.915,0,0,1-3.432.408c-2.352,0-3.276-.432-3.276-1.512,0-1,.888-1.788,2.94-2.616a31.777,31.777,0,0,1,3.612-1.164l-.36-.912a5.429,5.429,0,0,1-.768.324c-1.848.636-2.244.792-2.9,1.068a21.865,21.865,0,0,1-.9-3.972Zm4.4-.036a9.357,9.357,0,0,1,1.224,1.908l.612-.36a9.633,9.633,0,0,0-1.236-1.86Zm1.368-.648a10.063,10.063,0,0,1,1.224,1.884l.6-.336a9.6,9.6,0,0,0-1.248-1.872Zm5.736.312a2.407,2.407,0,0,1-.036.384,30.333,30.333,0,0,0-.408,4.428v.276l.024,1.248.012.216v.132l.864-.036c-.012-.18-.012-.24-.012-.288a6.263,6.263,0,0,1,.648-2.676c.684-1.4,1.452-2.088,2.364-2.088,1.152,0,1.824,1.116,1.824,3.048a4.132,4.132,0,0,1-2.064,3.984,6.341,6.341,0,0,1-2.436.756,2.477,2.477,0,0,1,.48.816,9.083,9.083,0,0,0,2.136-.708,4.951,4.951,0,0,0,2.772-4.716,4.929,4.929,0,0,0-.72-2.916,2.259,2.259,0,0,0-1.92-1.068,2.862,2.862,0,0,0-2.4,1.548,5.354,5.354,0,0,0-.732,1.788c-.06.252-.06.252-.084.348l-.048-.012c.036-.612.2-1.92.4-3.132a6.8,6.8,0,0,1,.276-1.236ZM196.7,25.852v.84H194.04a5.971,5.971,0,0,1-1.068-.06v.72a6.138,6.138,0,0,1,1.068-.06H196.7v.852h-3.612a7.445,7.445,0,0,1-1.176-.072v.768a6.537,6.537,0,0,1,1.176-.072h1.452a8.6,8.6,0,0,1-1.08,2.6,7.277,7.277,0,0,1-1.8,2.04,2.308,2.308,0,0,1,.588.636,9.461,9.461,0,0,0,2.3-3.312,10.224,10.224,0,0,0-.084,1.332v1.8a7.185,7.185,0,0,1-.072,1.056h.8V34.36h5.34v.564h.816a7.122,7.122,0,0,1-.072-1.068V30.424a8.086,8.086,0,0,1,.048-.948c-.408.036-.732.048-1.08.048h-5.2a6.787,6.787,0,0,0,.228-.756h5.952a8.168,8.168,0,0,1,1.188.072v-.768a7.723,7.723,0,0,1-1.188.072h-3.8v-.852h2.916a5.984,5.984,0,0,1,1.056.06v-.72a5.984,5.984,0,0,1-1.056.06h-2.916v-.84h3.312a8.054,8.054,0,0,1,1.188.072V25.18a7.942,7.942,0,0,1-1.188.072H198.9a7.78,7.78,0,0,0,1.02-1.128l-.72-.276a7.181,7.181,0,0,1-1.092,1.4h-2.04a9.9,9.9,0,0,0-1.008-1.416l-.672.264a6.17,6.17,0,0,1,.9,1.152h-1.7a7.658,7.658,0,0,1-1.176-.072v.744a8.1,8.1,0,0,1,1.176-.072Zm3.84,4.284v.8H195.2v-.8Zm0,1.38v.8H195.2v-.8Zm0,1.38v.852H195.2V32.9Zm7.1-4.884a1.186,1.186,0,0,1,.18-.012,1.725,1.725,0,0,1,.216.012c.432.024,1.116.048,1.452.048.528,0,1.224-.024,1.752-.072.024.348.024.612.024.948,0,1.92-.192,2.8-.8,3.576a4.92,4.92,0,0,1-1.836,1.38,2.768,2.768,0,0,1,.648.648,5.8,5.8,0,0,0,1.884-1.548c.708-.96.924-1.944.924-4.224,0-.348,0-.54-.012-.864a11.445,11.445,0,0,0,1.308-.24,6.067,6.067,0,0,1,.636-.144l-.06-.864a6.333,6.333,0,0,1-1.908.5c-.06-1.668-.06-1.668-.072-1.944-.012-.216-.012-.276-.012-.36a2.822,2.822,0,0,1,.036-.408l-.924.012a23.141,23.141,0,0,1,.144,2.8c-.6.048-1.044.072-1.524.072a9.712,9.712,0,0,1-2.04-.156Zm-2.16-3.408a6.1,6.1,0,0,1-.108.828,24.662,24.662,0,0,0-.48,4.62,13.654,13.654,0,0,0,.444,3.552,3.192,3.192,0,0,1,.1.42l.828-.072a4.684,4.684,0,0,1,.336-1.524,22.76,22.76,0,0,1,.888-2.1l-.612-.288a13.115,13.115,0,0,0-1.008,2.544,4.178,4.178,0,0,0-.072-.648c-.048-.408-.1-1.3-.1-1.956a20.75,20.75,0,0,1,.732-5.232Zm12.2,1.356a5.912,5.912,0,0,1,.648-.06c1.824-.06,3.264-.144,3.648-.216a.464.464,0,0,1,.108-.012l.024.024-.048.048-.048.048-.168.168c-.828.816-2.724,2.484-4.008,3.5a13.369,13.369,0,0,1-1.68,1.224l.54.768A7.7,7.7,0,0,1,221.76,29.4c1.62,0,2.58.684,2.58,1.836,0,1.02-.66,1.752-1.92,2.1a3.435,3.435,0,0,0-.552-1.152,2.417,2.417,0,0,0-1.98-.984,1.559,1.559,0,0,0-1.74,1.4c0,1.1.972,1.728,2.664,1.728,2.664,0,4.4-1.236,4.4-3.108,0-1.536-1.284-2.52-3.288-2.52a6.08,6.08,0,0,0-2.94.744l-.024-.036a30.792,30.792,0,0,0,3.948-3.408,2.215,2.215,0,0,1,.612-.5l-.5-.66a1.227,1.227,0,0,1-.576.132c-1.08.084-2.676.156-3.672.156a5.542,5.542,0,0,1-1.128-.072Zm3.936,7.6a4.321,4.321,0,0,1-.876.084,3.066,3.066,0,0,1-1.344-.276.819.819,0,0,1-.48-.732c0-.456.372-.744.972-.744C220.764,31.888,221.364,32.464,221.628,33.556Zm6.336-5.328a6.867,6.867,0,0,1,.7-.156c.108-.024.684-.12,1.716-.276a19.81,19.81,0,0,1-1.32,3.8,11.507,11.507,0,0,1-1.248,2.172l.816.48c.372-.672.624-1.152.78-1.44a22.64,22.64,0,0,0,1.812-5.088,6.89,6.89,0,0,1,.864-.06c1.116,0,1.476.408,1.476,1.68a9.289,9.289,0,0,1-.5,3.336q-.234.576-.684.576a4.486,4.486,0,0,1-1.788-.552,2.324,2.324,0,0,1,.036.48,2.612,2.612,0,0,1-.024.42,4.515,4.515,0,0,0,1.812.468,1.253,1.253,0,0,0,1.176-.564,8.271,8.271,0,0,0,.8-4.128,2.422,2.422,0,0,0-.588-1.932,2.293,2.293,0,0,0-1.728-.5,6.994,6.994,0,0,0-.708.036c.108-.576.192-1.02.252-1.368a7.378,7.378,0,0,1,.228-1.152l-.96-.108v.156a14.668,14.668,0,0,1-.36,2.544c-.972.156-2.22.3-2.652.312Zm7.08-1.584a9.823,9.823,0,0,1,2.448,4.308l.768-.444a10.851,10.851,0,0,0-2.508-4.248ZM8.988,53.136v.72h.96a8.041,8.041,0,0,1-.06-1.092V46.62c0-.432,0-.636.024-.936-.3.012-.468.024-.624.024H3.528a6.564,6.564,0,0,1-1.38-.084v.96a10.06,10.06,0,0,1,1.38-.06h5.46v5.8H3.276a5.867,5.867,0,0,1-1.308-.084v.948a9.654,9.654,0,0,1,1.284-.048Zm5.8-4.188a22.649,22.649,0,0,1,4.68,5.16L20.2,53.5c-.8-1.068-1.3-1.692-1.752-2.184a18.35,18.35,0,0,0,3.96-4.5,3.426,3.426,0,0,1,.48-.636l-.5-.6a1.465,1.465,0,0,1-.672.084h-7a8.722,8.722,0,0,1-1.4-.072v.948c.408-.036.744-.048,1.392-.048,6.684-.012,6.684-.012,6.852-.024-.048.072-.06.084-.1.144a17.517,17.517,0,0,1-1.98,2.6,20.927,20.927,0,0,1-1.6,1.476,25.931,25.931,0,0,0-2.436-2.268Zm11.088-2.784a13.251,13.251,0,0,1,2.856,2.352l.624-.744a15.632,15.632,0,0,0-2.892-2.256Zm.084,7.8a6.305,6.305,0,0,1,.72-.192,12.1,12.1,0,0,0,4.476-1.788,10.525,10.525,0,0,0,3.66-4.584,2.4,2.4,0,0,1-.732-.708,9.067,9.067,0,0,1-4.9,5.34,10.445,10.445,0,0,1-3.492.924Zm14.628.408a7.423,7.423,0,0,1-.06-1.272V49.488a4.013,4.013,0,0,0-.048-.708l.024-.012a1.521,1.521,0,0,0,.372.2,24.992,24.992,0,0,1,4.476,2.376l.516-.888a31.505,31.505,0,0,0-5.34-2.532V45.684a6.829,6.829,0,0,1,.06-1.248H39.552a7.053,7.053,0,0,1,.072,1.224v7.452a7.962,7.962,0,0,1-.072,1.26Zm2.976-9.144A8.887,8.887,0,0,1,44.8,47.136l.6-.36a9.11,9.11,0,0,0-1.236-1.86Zm1.368-.648a8.756,8.756,0,0,1,1.224,1.9l.6-.348a10.108,10.108,0,0,0-1.236-1.872Zm7.236,1.344a16.791,16.791,0,0,1-2.568-.132l-.012.828a2.128,2.128,0,0,1,.264-.012h.192c.444.012,1.572.036,1.764.036a1.329,1.329,0,0,0,.228-.024l-.108.18a11.941,11.941,0,0,1-2.688,3.432l.672.672a3.971,3.971,0,0,1,.924-1,4.508,4.508,0,0,1,2.676-1.272c.564,0,.852.288.948.948a9.315,9.315,0,0,0-1.788.96,2.481,2.481,0,0,0-1.224,1.9c0,1.236,1.044,1.848,3.192,1.848a18.617,18.617,0,0,0,2.916-.24,4.723,4.723,0,0,1,.48-.06l-.108-.924a10.055,10.055,0,0,1-3.2.468c-1.692,0-2.436-.348-2.436-1.14,0-.72.624-1.284,2.256-2.052a3.153,3.153,0,0,1,.012.36,17.257,17.257,0,0,1-.072,1.728l.816-.012a2.609,2.609,0,0,1-.024-.432c0-.108,0-.276.012-.54.012-.24.012-.5.012-.66,0-.3,0-.42-.024-.732A19.923,19.923,0,0,1,58.476,49l-.384-.84a2.64,2.64,0,0,1-.816.348c-.528.192-1.212.444-2.088.792A1.456,1.456,0,0,0,53.6,47.964a3.193,3.193,0,0,0-1.812.588c-.12.084-.12.084-.552.42a.092.092,0,0,1-.024-.036v-.012a.012.012,0,0,0,.012-.012c.012-.012.072-.06.156-.12.048-.036.288-.312.408-.456a8.849,8.849,0,0,0,1.08-1.7,38.747,38.747,0,0,0,3.96-.312,3.74,3.74,0,0,1,.48-.06l-.072-.816a16.889,16.889,0,0,1-3.78.456,2.043,2.043,0,0,0-.252.012c.06-.108.216-.432.372-.816a2.549,2.549,0,0,1,.312-.648l-.96-.168a5.093,5.093,0,0,1-.576,1.644ZM70.272,49.14a4.736,4.736,0,0,1-.9.048H66.024a4.358,4.358,0,0,1-.852-.06v.78a5.8,5.8,0,0,1,.72-.06,7.308,7.308,0,0,0,1.776,2.736,9.2,9.2,0,0,1-2.988,1.6,2.052,2.052,0,0,1,.468.66A10.1,10.1,0,0,0,68.2,53.076a10.063,10.063,0,0,0,3.108,1.74,3.96,3.96,0,0,1,.432-.756,8.95,8.95,0,0,1-3.012-1.5,9.34,9.34,0,0,0,1.764-2.532,4.009,4.009,0,0,1,.228-.444Zm-.5.708A7.226,7.226,0,0,1,68.2,52.1a6.117,6.117,0,0,1-1.6-2.256Zm-8.616-4.692a6.636,6.636,0,0,1,.912-.048h1.62a6.864,6.864,0,0,1,.912.048V44.4a4.958,4.958,0,0,1-.912.06h-1.62a4.879,4.879,0,0,1-.912-.06Zm-.408,1.7a7.525,7.525,0,0,1,.96-.048H64.08a5.387,5.387,0,0,1,.876.048v-.8a4.9,4.9,0,0,1-.96.06H61.7a5.128,5.128,0,0,1-.96-.06Zm.42,1.656a5.806,5.806,0,0,1,.864-.048H63.72a5.946,5.946,0,0,1,.852.048v-.732a5.15,5.15,0,0,1-.852.048H62.028a5.221,5.221,0,0,1-.864-.048Zm0,1.656a5.7,5.7,0,0,1,.864-.048H63.72a6.054,6.054,0,0,1,.852.048V49.44a5.058,5.058,0,0,1-.852.048H62.028a5.315,5.315,0,0,1-.864-.048ZM61.92,54.9v-.648h1.932v.492H64.6a6.281,6.281,0,0,1-.06-.984V52.068c0-.456.012-.672.036-.948a4.971,4.971,0,0,1-.876.036H62.124a8.159,8.159,0,0,1-.96-.048,6.228,6.228,0,0,1,.06,1.008v1.62a8.043,8.043,0,0,1-.072,1.164Zm0-3.12h1.932v1.848H61.92Zm6.948-6.648v2.532c0,.54.216.66,1.188.66.684,0,.984-.06,1.164-.216.228-.2.348-.648.42-1.62a2.092,2.092,0,0,1-.66-.324,3.724,3.724,0,0,1-.192,1.344c-.06.132-.2.168-.7.168-.4,0-.5-.048-.5-.252V45.552a10.012,10.012,0,0,1,.048-1.128,7.934,7.934,0,0,1-1.02.048H67.152a8.291,8.291,0,0,1-.936-.048,3.8,3.8,0,0,1,.06.72A4.821,4.821,0,0,1,66,46.968,2.709,2.709,0,0,1,64.824,48.4a2.518,2.518,0,0,1,.612.5,3.275,3.275,0,0,0,.984-1.116A5.177,5.177,0,0,0,67,45.132Zm8.82,8.208a4.033,4.033,0,0,1-1.3-.732,3.67,3.67,0,0,1-.948-1.32c.084-.288.264-.984.324-1.272l.144-.624-.84-.168v.12a7.589,7.589,0,0,1-.732,2.736,6.387,6.387,0,0,1-1.62,2.136,2.227,2.227,0,0,1,.624.564,8.117,8.117,0,0,0,1.824-2.724,4.385,4.385,0,0,0,3.684,2.256,16.266,16.266,0,0,0,2.628.1c.324,0,.408,0,1.452-.024a2.223,2.223,0,0,1,.264-.84c-1.008.084-1.836.12-2.808.12a10.757,10.757,0,0,1-1.956-.132V50.868h2.316a6.409,6.409,0,0,1,1.152.072v-.816a7.212,7.212,0,0,1-1.152.072H78.432V48.24h2.1a7.831,7.831,0,0,1,1.188.072v-.828a7.723,7.723,0,0,1-1.188.072H75.564a7.723,7.723,0,0,1-1.188-.072v.828a8.168,8.168,0,0,1,1.188-.072h2.124Zm-.18-7.92H74.256c-.48,0-.828-.012-1.212-.048a5.426,5.426,0,0,1,.048.816v.756a5.734,5.734,0,0,1-.048.852h.792v-1.68h8.376V47.8h.78a5.734,5.734,0,0,1-.048-.852v-.756a5.426,5.426,0,0,1,.048-.816c-.384.036-.732.048-1.2.048h-3.5v-.588a3.145,3.145,0,0,1,.084-.744h-.936a4.129,4.129,0,0,1,.072.756Zm9.276-.78a3.691,3.691,0,0,1,.048.636c0,.192,0,.42-.012.78-.1,3.78-.108,4.08-.108,4.884a3.343,3.343,0,0,0,.66,2.46,2.846,2.846,0,0,0,2.256.84,4.2,4.2,0,0,0,3.384-1.5,7.3,7.3,0,0,0,1.332-2.724,3.394,3.394,0,0,1-.864-.576,7.129,7.129,0,0,1-.588,1.884,3.446,3.446,0,0,1-3.216,2.088,2.265,2.265,0,0,1-1.5-.468,1.889,1.889,0,0,1-.564-1.44c-.012-.276-.024-.576-.024-.72,0-.54.036-2.172.084-3.612a18.5,18.5,0,0,1,.156-2.532Zm14.592-.312a5.517,5.517,0,0,1,.06.972c.012,1.716.1,4.032.192,5.412v.072a.332.332,0,0,1,.012.108c-.036-.024-.036-.024-.06-.024-.048,0-.048-.012-.108-.024a5.173,5.173,0,0,0-1.044-.108c-1.7,0-2.82.744-2.82,1.9,0,1.1.948,1.776,2.5,1.776a2.536,2.536,0,0,0,2.136-.828,2.149,2.149,0,0,0,.3-1.212,3.428,3.428,0,0,0-.048-.516,2.331,2.331,0,0,0,.288.132,12.071,12.071,0,0,1,1.62.924,5.311,5.311,0,0,1,1.248,1.044l.564-.84a5.5,5.5,0,0,1-.552-.372,10.372,10.372,0,0,0-3.2-1.7c-.06-.768-.12-1.932-.156-3.1a20.717,20.717,0,0,0,2.892-.264,6.675,6.675,0,0,1,.72-.084L105.8,46.7a11.945,11.945,0,0,1-3.516.456c-.024-.852-.024-.984-.024-1.248a8.611,8.611,0,0,1,.072-1.584Zm.276,7.332a6.413,6.413,0,0,1,.036.66,1.113,1.113,0,0,1-.288.9,2.027,2.027,0,0,1-1.332.4,1.937,1.937,0,0,1-1.44-.48.814.814,0,0,1-.18-.516c0-.7.744-1.128,1.968-1.128A4.087,4.087,0,0,1,101.652,51.66Zm9.672-6.3a21.846,21.846,0,0,0,5.04.792l.132-.864a15.143,15.143,0,0,1-4.884-.744Zm-1.248,3.9a16.757,16.757,0,0,1,4.572-.8,3.342,3.342,0,0,1,1.476.264,1.456,1.456,0,0,1,.768,1.344,2.686,2.686,0,0,1-.612,1.632,2.938,2.938,0,0,1-1.032.852,7.618,7.618,0,0,1-3.372.972,3.045,3.045,0,0,1,.384.876,9.216,9.216,0,0,0,3.48-1.14,3.824,3.824,0,0,0,2.064-3.24,2.134,2.134,0,0,0-1.02-1.908,3.816,3.816,0,0,0-2.064-.456,20.05,20.05,0,0,0-3.66.432,9.443,9.443,0,0,1-1.212.2Z" transform="translate(3860 1063)" fill="#2d7066"/>
    <path id="パス_16" data-name="パス 16" d="M3.873.727,6.4-1.8h-2.1V-8.672H3.439V-1.8h-2.1ZM21.178-2.688a7.864,7.864,0,0,1,1.128.072v-.8a6.819,6.819,0,0,1-1.116.072h-4.1a8.973,8.973,0,0,0,.18-1.152H19.69a5.763,5.763,0,0,1,1.032.06V-5.2a5.763,5.763,0,0,1-1.032.06H17.314c.024-.4.036-.684.048-1.068h2.52a6.331,6.331,0,0,1,1.152.072v-.78a7.008,7.008,0,0,1-1.152.072H17.374a4.32,4.32,0,0,1,.06-.972h-.888a4.376,4.376,0,0,1,.072.972H14.29a7.109,7.109,0,0,1-1.152-.072v.78A7.422,7.422,0,0,1,14.29-6.2h2.316c-.012.468-.012.6-.036,1.068H14.338a5.914,5.914,0,0,1-1.044-.06v.756a5.832,5.832,0,0,1,1.044-.06H16.51a7.045,7.045,0,0,1-.168,1.152H13.054a6.657,6.657,0,0,1-1.1-.072v.8a7.928,7.928,0,0,1,1.116-.072h3.048A3.989,3.989,0,0,1,14.35-.828a7.281,7.281,0,0,1-2.568.864,2.809,2.809,0,0,1,.444.756,8.275,8.275,0,0,0,2.724-1.1,4.629,4.629,0,0,0,1.884-2.244A7.953,7.953,0,0,0,22.006.816a3.1,3.1,0,0,1,.456-.78,9.137,9.137,0,0,1-3.324-1.224,5.612,5.612,0,0,1-1.56-1.5Zm-4.584-6.12h-3.3a11.835,11.835,0,0,1-1.212-.048,5.53,5.53,0,0,1,.048.816v.7a5.494,5.494,0,0,1-.048.828h.792V-8.148h8.448v1.632h.78a5.393,5.393,0,0,1-.048-.828v-.708a5.465,5.465,0,0,1,.048-.8,11.736,11.736,0,0,1-1.2.048H17.374v-.456a3.815,3.815,0,0,1,.072-.744H16.51a3.145,3.145,0,0,1,.084.744Zm15.06,3.264v5.2c0,.24-.1.288-.5.288A12.031,12.031,0,0,1,29.458-.2a2.889,2.889,0,0,1,.192.828c.516.036,1.08.06,1.464.06,1.056,0,1.344-.2,1.344-.972V-5.544h.684a9.2,9.2,0,0,1,1.308.072v-.84a8.5,8.5,0,0,1-1.32.072H28.918a9.117,9.117,0,0,1-1.332-.072v.84a9.231,9.231,0,0,1,1.332-.072Zm-5.22-4.44A4.693,4.693,0,0,1,25.342-8.52a8.255,8.255,0,0,1-1.584,1.272,2.32,2.32,0,0,1,.54.588,11.705,11.705,0,0,0,2.664-2.6,1.964,1.964,0,0,1,.216-.264Zm1.644,1.5a9.463,9.463,0,0,1,1.248-.072h3.36a9.271,9.271,0,0,1,1.236.072v-.84a8.432,8.432,0,0,1-1.236.072h-3.36a8.5,8.5,0,0,1-1.248-.072Zm-2.556,7.9A9.1,9.1,0,0,1,25.438.876h.948A9,9,0,0,1,26.3-.588V-5.436a8.116,8.116,0,0,0,.8-1.08,5.126,5.126,0,0,1,.36-.516l-.744-.42a4.125,4.125,0,0,1-.576,1.032,9.835,9.835,0,0,1-2.424,2.364,2.288,2.288,0,0,1,.468.684,6.926,6.926,0,0,0,1.368-1.344c-.024.576-.036.924-.036,1.44Zm16.872-7.26v1.56H40.8a7.964,7.964,0,0,1-1.212-.072v.8A8.77,8.77,0,0,1,40.8-5.628H44.17v1.4H40.8A7.645,7.645,0,0,1,39.586-4.3v.828a8.957,8.957,0,0,1,1.2-.072H44.17v3.3c0,.264-.084.312-.54.312a8.71,8.71,0,0,1-1.368-.144,2.135,2.135,0,0,1,.192.792c.7.036.888.048,1.08.048,1.116,0,1.38-.18,1.38-.948V-3.54h.372a7.99,7.99,0,0,1,1.176.072V-4.3a7.341,7.341,0,0,1-1.176.072h-.372v-1.4h.4a7.7,7.7,0,0,1,1.164.072v-.8a7.856,7.856,0,0,1-1.212.072H43.138v-1.56h1.7a9.9,9.9,0,0,1,1.14.06V-8.58a7.253,7.253,0,0,1-1.14.072h-1.7v-.384a5.844,5.844,0,0,1,.072-.972h-.888a6.162,6.162,0,0,1,.072.972v.384H41.122a7.045,7.045,0,0,1-1.14-.072v.792a10.459,10.459,0,0,1,1.152-.06ZM36.238-1.272A9.6,9.6,0,0,1,36.166,0h.78V-.984h1.572v.6h.744c-.024-.264-.036-.576-.036-1.152V-8.112a8.891,8.891,0,0,1,.036-1.176,10.312,10.312,0,0,1-1.08.036h-.888a10.765,10.765,0,0,1-1.1-.036,9.934,9.934,0,0,1,.048,1.152Zm.708-7.308h1.572V-5.6H36.946Zm0,3.624h1.572v3.3H36.946Zm5.76,3.84a12.913,12.913,0,0,0-1.728-1.956l-.588.42A10.89,10.89,0,0,1,42.058-.636Zm6.276-4.74h2.2c.48,0,.888.012,1.212.036-.024-.3-.036-.636-.036-1.116V-8.424c0-.444.012-.8.036-1.14a10.529,10.529,0,0,1-1.224.048H49.45a11.107,11.107,0,0,1-1.26-.048c.036.384.048.732.048,1.32V-.492A8.969,8.969,0,0,1,48.166.852h.888a8.645,8.645,0,0,1-.072-1.344Zm0-3.072H51.67v.96H48.982Zm0,1.524H51.67v.972H48.982Zm8.916-.84a11.355,11.355,0,0,1,.06-1.32,11.107,11.107,0,0,1-1.26.048h-1.98a10.4,10.4,0,0,1-1.224-.048c.024.36.036.72.036,1.14v1.488c0,.444-.012.8-.036,1.116.324-.024.708-.036,1.212-.036h2.46v5.5c0,.288-.1.348-.588.348a13.05,13.05,0,0,1-1.32-.12,2.754,2.754,0,0,1,.216.768c.3.024.948.048,1.2.048.972,0,1.224-.2,1.224-1Zm-3.684-.684h2.952v.96H54.214Zm0,1.524h2.952v.972H54.214ZM55.282-3.78c0-.48.012-.792.036-1.128a10.63,10.63,0,0,1-1.188.048h-2.2a10.769,10.769,0,0,1-1.188-.048c.024.348.036.7.036,1.128v2.664a7.4,7.4,0,0,1-.06,1.128h.744v-.84h2.628c.492,0,.888.012,1.224.036-.024-.312-.036-.636-.036-1.092Zm-3.816-.48H54.6v1.068H51.466Zm0,1.668H54.6v1.164H51.466ZM63.238-8.076a16.791,16.791,0,0,1-2.568-.132l-.012.828a2.128,2.128,0,0,1,.264-.012h.192c.444.012,1.572.036,1.764.036a1.329,1.329,0,0,0,.228-.024L63-7.2A11.941,11.941,0,0,1,60.31-3.768l.672.672a3.971,3.971,0,0,1,.924-1,4.508,4.508,0,0,1,2.676-1.272c.564,0,.852.288.948.948a9.316,9.316,0,0,0-1.788.96,2.481,2.481,0,0,0-1.224,1.9c0,1.236,1.044,1.848,3.192,1.848a18.616,18.616,0,0,0,2.916-.24,4.722,4.722,0,0,1,.48-.06L69-.936a10.055,10.055,0,0,1-3.2.468c-1.692,0-2.436-.348-2.436-1.14,0-.72.624-1.284,2.256-2.052a3.153,3.153,0,0,1,.012.36,17.259,17.259,0,0,1-.072,1.728l.816-.012a2.609,2.609,0,0,1-.024-.432c0-.108,0-.276.012-.54.012-.24.012-.5.012-.66,0-.3,0-.42-.024-.732A19.924,19.924,0,0,1,69.55-5l-.384-.84a2.64,2.64,0,0,1-.816.348c-.528.192-1.212.444-2.088.792a1.456,1.456,0,0,0-1.584-1.332,3.194,3.194,0,0,0-1.812.588c-.12.084-.12.084-.552.42a.092.092,0,0,1-.024-.036v-.012a.012.012,0,0,0,.012-.012c.012-.012.072-.06.156-.12.048-.036.288-.312.408-.456a8.849,8.849,0,0,0,1.08-1.7,38.747,38.747,0,0,0,3.96-.312,3.741,3.741,0,0,1,.48-.06l-.072-.816a16.889,16.889,0,0,1-3.78.456,2.043,2.043,0,0,0-.252.012c.06-.108.216-.432.372-.816a2.548,2.548,0,0,1,.312-.648l-.96-.168a5.093,5.093,0,0,1-.576,1.644Zm10.74.84a6.61,6.61,0,0,1-1.3-.084l.012.912a7.234,7.234,0,0,1,1.272-.06L76.15-6.48a7.808,7.808,0,0,1-.744,2.856,7.019,7.019,0,0,1-3.12,3.156A2.486,2.486,0,0,1,72.9.24a8.666,8.666,0,0,0,3.144-3.18A9.049,9.049,0,0,0,77-6.48l3.36-.012a26.422,26.422,0,0,1-.3,4.26c-.228,1.188-.42,1.476-1.008,1.476a5.067,5.067,0,0,1-1.548-.312,1.973,1.973,0,0,1,.132.756v.144a6.83,6.83,0,0,0,1.488.2c1.08,0,1.44-.432,1.74-2.076a32.735,32.735,0,0,0,.336-4.2,1.8,1.8,0,0,1,.1-.72l-.444-.384a1.917,1.917,0,0,1-.792.084l-3,.012c.036-.336.036-.48.06-.852a10.02,10.02,0,0,1,.1-1.548l-.972-.024a3.216,3.216,0,0,1,.048.624c0,.528-.024,1.188-.072,1.8Zm15.48-.42V-8.88a4.71,4.71,0,0,1,.06-.756H88.51a3.764,3.764,0,0,1,.06.768v1.212H86.026a10.25,10.25,0,0,1-1.1-.048,7.848,7.848,0,0,1,.048.972v1.62c0,.312-.024.7-.048.9h.984A8.546,8.546,0,0,1,85.87-5.1V-6.9h6.552a6.588,6.588,0,0,1-2.784,5.244A7.924,7.924,0,0,1,86.986-.492a2.457,2.457,0,0,1,.552.816,9.408,9.408,0,0,0,3.516-1.992,7.477,7.477,0,0,0,2.172-4.38c.156-1.02.156-1.02.264-1.212L93-7.728a2.672,2.672,0,0,1-1.008.072Zm7.488-.18A13.251,13.251,0,0,1,99.8-5.484l.624-.744a15.632,15.632,0,0,0-2.892-2.256Zm.084,7.8a6.3,6.3,0,0,1,.72-.192,12.1,12.1,0,0,0,4.476-1.788,10.525,10.525,0,0,0,3.66-4.584,2.4,2.4,0,0,1-.732-.708,9.067,9.067,0,0,1-4.9,5.34,10.445,10.445,0,0,1-3.492.924Zm14.628.408A8.162,8.162,0,0,1,111.6-.9V-4.512a4.191,4.191,0,0,0-.048-.708l.024-.012a1.324,1.324,0,0,0,.372.2,24.466,24.466,0,0,1,4.476,2.376l.516-.888a29.761,29.761,0,0,0-5.34-2.532V-8.316a7.533,7.533,0,0,1,.06-1.248h-1.032A7.115,7.115,0,0,1,110.7-8.34V-.888a7.719,7.719,0,0,1-.072,1.26Z" transform="translate(4139 1041)" fill="#2d7066"/>
  </g>
</svg>
